<?xml version="1.0" standalone="no"?>
<!DOCTYPE svg PUBLIC "-//W3C//DTD SVG 20010904//EN"
 "http://www.w3.org/TR/2001/REC-SVG-20010904/DTD/svg10.dtd">
<svg version="1.0" xmlns="http://www.w3.org/2000/svg"
 width="700.000000pt" height="700.000000pt" viewBox="0 0 700.000000 700.000000"
 preserveAspectRatio="xMidYMid meet">
<metadata>
Created by potrace 1.11, written by Peter Selinger 2001-2013
</metadata>
<g transform="translate(0.000000,700.000000) scale(0.100000,-0.100000)"
fill="#000000" stroke="none">
<path d="M3287 6990 c-71 -5 -131 -11 -135 -14 -3 -3 6 -6 19 -6 32 0 122 -43
170 -80 55 -45 111 -125 135 -198 l21 -63 18 53 c25 78 58 129 119 185 59 54
106 80 176 98 l44 12 -59 6 c-112 12 -380 15 -508 7z"/>
<path d="M2792 6925 c-988 -210 -1817 -810 -2325 -1685 -191 -329 -338 -730
-406 -1110 -52 -289 -54 -326 -58 -1280 l-3 -895 82 86 c451 472 875 722 1149
678 67 -11 201 -69 258 -113 29 -22 37 -24 50 -13 125 105 361 316 454 406
l117 114 0 128 c0 292 82 696 205 1004 36 90 49 144 74 295 58 351 119 839
180 1444 29 285 30 290 65 361 34 68 36 79 36 171 1 110 10 163 41 230 29 62
102 140 163 175 61 34 62 34 -82 4z"/>
<path d="M4125 6921 c68 -39 130 -109 167 -187 26 -56 31 -80 39 -200 8 -122
12 -143 40 -199 29 -60 32 -77 64 -396 42 -412 76 -698 121 -1029 58 -424 80
-541 129 -665 121 -305 191 -639 202 -957 l6 -177 116 -114 c91 -88 318 -291
451 -403 13 -11 23 -8 62 19 195 139 385 146 643 22 215 -103 489 -319 753
-594 l82 -86 -3 895 c-4 968 -6 1009 -63 1305 -216 1126 -965 2071 -2015 2542
-217 97 -576 207 -809 247 -34 6 -34 5 15 -23z"/>
<path d="M3490 1902 c0 -27 -44 -134 -85 -207 -154 -276 -411 -481 -691 -550
-84 -21 -101 -29 -157 -76 -34 -29 -64 -54 -66 -56 -2 -1 7 -51 20 -110 31
-141 34 -417 6 -527 -46 -180 -142 -300 -287 -357 -43 -17 1 -18 1270 -18
1285 0 1314 0 1268 18 -143 56 -239 177 -285 357 -28 110 -25 386 6 527 13 59
22 109 20 110 -2 2 -32 27 -66 56 -56 47 -72 55 -158 76 -249 62 -482 232
-638 467 -64 95 -126 222 -134 274 -6 35 -23 47 -23 16z"/>
</g>
</svg>
